<svg width="41" height="40" viewBox="0 0 41 40" fill="none" xmlns="http://www.w3.org/2000/svg">
<path d="M21.112 17.394C21.506 17.788 21.984 18.05 22.49 18.178C22.0851 19.038 21.9265 19.9934 22.032 20.938L20.5 21.84L4.53 12.446C4.66632 11.2233 5.24865 10.0938 6.16559 9.2735C7.08253 8.45323 8.26971 7.99983 9.5 8.00002H26.25L21.108 13.15C20.8295 13.4289 20.6086 13.7599 20.4581 14.1241C20.3076 14.4884 20.2303 14.8787 20.2306 15.2729C20.231 15.667 20.309 16.0572 20.4603 16.4211C20.6115 16.7851 20.833 17.1157 21.112 17.394ZM22.664 22.888C22.8853 23.2827 23.164 23.648 23.5 23.984C25.5 25.984 28.74 25.982 30.74 23.984L36.5 18.246V29C36.5 30.3261 35.9732 31.5979 35.0355 32.5356C34.0979 33.4732 32.8261 34 31.5 34H9.5C8.17392 34 6.90215 33.4732 5.96447 32.5356C5.02678 31.5979 4.5 30.3261 4.5 29V14.746L19.994 23.862C20.1477 23.9524 20.3227 24.0001 20.501 24.0001C20.6793 24.0001 20.8543 23.9524 21.008 23.862L22.664 22.888ZM30.952 8.95202C31.5634 8.35178 32.387 8.01724 33.2438 8.02117C34.1006 8.02511 34.9211 8.36721 35.527 8.97304C36.1328 9.57888 36.4749 10.3994 36.4788 11.2562C36.4828 12.113 36.1482 12.9366 35.548 13.548L35.528 13.568L27.812 21.256L27.792 21.276C27.6864 21.3785 27.5617 21.4591 27.4249 21.5133C27.2882 21.5675 27.1421 21.5943 26.995 21.5921C26.8479 21.5898 26.7027 21.5587 26.5677 21.5003C26.4327 21.442 26.3104 21.3576 26.208 21.252C26.1056 21.1464 26.0249 21.0217 25.9707 20.885C25.9165 20.7482 25.8897 20.6021 25.8919 20.455C25.8942 20.308 25.9253 20.1628 25.9837 20.0277C26.042 19.8927 26.1264 19.7705 26.232 19.668L33.206 12.708C33.3938 12.5205 33.4994 12.2661 33.4996 12.0007C33.4997 11.7354 33.3945 11.4808 33.207 11.293C33.0195 11.1052 32.7651 10.9997 32.4997 10.9995C32.2343 10.9993 31.9798 11.1045 31.792 11.292L24.792 18.278L24.76 18.312C24.1879 18.9006 23.8708 19.6909 23.8774 20.5116C23.884 21.3324 24.2137 22.1175 24.7951 22.6968C25.3766 23.2761 26.1628 23.603 26.9836 23.6066C27.8044 23.6102 28.5935 23.2902 29.18 22.716L29.204 22.694L36.962 14.964L36.986 14.938C37.947 13.9462 38.4785 12.6158 38.4654 11.2348C38.4523 9.85388 37.8956 8.53373 36.9159 7.56038C35.9363 6.58703 34.6126 6.03888 33.2316 6.03469C31.8506 6.03051 30.5235 6.57063 29.538 7.53802L22.4 14.684C22.2178 14.8726 22.117 15.1252 22.1193 15.3874C22.1216 15.6496 22.2268 15.9004 22.4122 16.0858C22.5976 16.2712 22.8484 16.3764 23.1106 16.3787C23.3728 16.381 23.6254 16.2802 23.814 16.098L30.952 8.95202Z" fill="#294898"/>
</svg>
