<svg width="41" height="40" viewBox="0 0 41 40" fill="none" xmlns="http://www.w3.org/2000/svg">
<path fill-rule="evenodd" clip-rule="evenodd" d="M20.5001 26.2501C20.8316 26.2501 21.1496 26.1184 21.384 25.884C21.6184 25.6496 21.7501 25.3316 21.7501 25.0001V6.71178L24.5501 9.98012C24.7658 10.2321 25.0728 10.388 25.4035 10.4136C25.7342 10.4393 26.0615 10.3325 26.3134 10.1168C26.5654 9.90107 26.7214 9.59411 26.747 9.26342C26.7726 8.93273 26.6658 8.6054 26.4501 8.35345L21.4501 2.52012C21.3328 2.38289 21.1871 2.27272 21.0231 2.19718C20.8591 2.12164 20.6807 2.08252 20.5001 2.08252C20.3196 2.08252 20.1411 2.12164 19.9771 2.19718C19.8132 2.27272 19.6675 2.38289 19.5501 2.52012L14.5501 8.35345C14.4433 8.47821 14.3621 8.62278 14.3112 8.77891C14.2602 8.93504 14.2406 9.09968 14.2533 9.26342C14.2659 9.42716 14.3108 9.5868 14.3851 9.73322C14.4595 9.87964 14.562 10.01 14.6868 10.1168C14.8115 10.2236 14.9561 10.3048 15.1122 10.3557C15.2684 10.4067 15.433 10.4263 15.5968 10.4136C15.7605 10.401 15.9201 10.3561 16.0666 10.2818C16.213 10.2074 16.3433 10.1049 16.4501 9.98012L19.2501 6.71345V25.0001C19.2501 25.6901 19.8101 26.2501 20.5001 26.2501Z" fill="#294898"/>
<path d="M27.1668 15C25.9968 15 25.4118 15 24.9902 15.2817C24.8089 15.403 24.6531 15.5587 24.5318 15.74C24.2502 16.1617 24.2502 16.7467 24.2502 17.9167V25C24.2502 25.9946 23.8551 26.9484 23.1518 27.6516C22.4486 28.3549 21.4947 28.75 20.5002 28.75C19.5056 28.75 18.5518 28.3549 17.8485 27.6516C17.1453 26.9484 16.7502 25.9946 16.7502 25V17.9167C16.7502 16.7467 16.7502 16.1617 16.4685 15.74C16.3472 15.5587 16.1915 15.403 16.0102 15.2817C15.5885 15 15.0035 15 13.8335 15C9.12016 15 6.76183 15 5.2985 16.465C3.8335 17.9283 3.8335 20.2833 3.8335 24.9983V26.665C3.8335 31.3817 3.8335 33.7367 5.2985 35.2017C6.76183 36.6667 9.12016 36.6667 13.8335 36.6667H27.1668C31.8802 36.6667 34.2385 36.6667 35.7018 35.2017C37.1652 33.7367 37.1668 31.38 37.1668 26.6667V25C37.1668 20.285 37.1668 17.9283 35.7018 16.465C34.2385 15 31.8802 15 27.1668 15Z" fill="#294898"/>
</svg>
